<?xml version="1.0" standalone="no"?>
<!DOCTYPE svg PUBLIC "-//W3C//DTD SVG 20010904//EN"
 "http://www.w3.org/TR/2001/REC-SVG-20010904/DTD/svg10.dtd">
<svg version="1.0" xmlns="http://www.w3.org/2000/svg"
 width="518.000000pt" height="518.000000pt" viewBox="0 0 518.000000 518.000000"
 preserveAspectRatio="xMidYMid meet">
<metadata>
Created by potrace 1.14, written by Peter Selinger 2001-2017
</metadata>
<g transform="translate(0.000000,518.000000) scale(0.100000,-0.100000)"
fill="#000000" stroke="none">
<path d="M2536 4764 c-15 -7 -28 -12 -29 -12 -2 2 -176 -64 -232 -87 -16 -7
-55 -22 -85 -34 -30 -11 -68 -26 -85 -32 -16 -7 -34 -13 -40 -15 -5 -1 -63
-23 -127 -48 -64 -25 -121 -46 -126 -46 -5 0 -15 -7 -22 -15 -11 -13 -10 -18
6 -30 16 -13 166 -93 243 -130 12 -5 21 -13 21 -17 0 -5 7 -8 15 -8 24 0 17
-19 -10 -26 -14 -3 -25 -10 -25 -14 0 -4 -42 -8 -92 -9 -136 -3 -289 -10 -318
-16 -14 -3 -38 -8 -54 -11 -16 -2 -54 -14 -85 -25 -31 -11 -60 -21 -66 -22
-48 -13 -225 -121 -225 -137 0 -5 -8 -11 -18 -14 -43 -14 -262 -267 -262 -303
0 -7 -4 -13 -10 -13 -5 0 -10 -8 -10 -17 0 -9 -6 -24 -14 -32 -18 -20 -73
-198 -85 -276 -5 -34 -9 -455 -10 -970 0 -973 -1 -957 50 -1108 23 -65 69
-160 82 -165 4 -2 7 -9 7 -16 0 -26 121 -177 202 -252 118 -109 335 -204 508
-222 82 -9 1716 -8 1865 1 158 9 313 63 469 164 64 41 216 185 216 204 0 4 6
14 13 21 22 21 104 168 126 225 24 60 47 150 55 213 8 57 9 1821 1 1875 -3 22
-8 51 -11 65 -6 27 -15 67 -18 87 -1 7 -5 16 -9 19 -4 4 -7 14 -7 21 0 39
-107 241 -165 313 -68 82 -230 230 -254 230 -6 0 -11 4 -11 9 0 5 -37 27 -82
49 -92 45 -158 73 -158 67 0 -2 -15 1 -32 6 -61 19 -73 20 -160 24 -49 2 -92
6 -97 10 -5 3 -12 1 -16 -5 -4 -7 -12 -7 -25 0 -11 6 -21 6 -24 1 -3 -5 -14
-7 -24 -4 -15 4 -18 15 -18 78 l1 74 40 22 c22 12 45 26 52 31 13 11 6 41 -8
32 -5 -3 -9 -1 -9 4 0 5 -10 12 -22 15 -36 9 -130 43 -178 65 -55 25 -227 92
-236 92 -3 0 -54 21 -111 46 -58 25 -114 47 -124 49 -10 2 -26 8 -36 13 -32
18 -81 20 -107 6z"/>
</g>
</svg>
